# xmcd
#
# Track frame offsets:
#	150
#	11793
#	23264
#	33598
#	46161
#	57305
#	68284
#	79468
#	89988
#	102093
#	112308
#	122350
#	136384
#	151851
#	166718
#	178127
#	194460
#	208009
#	219269
#	228962
#	238878
#	250002
#
# Disc length: 3480 seconds
#
# Revision: 0
# Processed by: cddbd v1.5.2PL0 Copyright (c) Steve Scherf et al.
# Submitted via: dBpowerAMP V4.0
#
DISCID=270d9616
DTITLE=George Jones and Tammy Wynette - We Go Together - Let's Build A World Together
DYEAR=2007
DGENRE=Country
TTITLE0=We Go Together
TTITLE1=It's So Sweet
TTITLE2=Something To Brag About
TTITLE3=Never Grow Cold
TTITLE4=You're Everything
TTITLE5=Take Me
TTITLE6=Someone I Used To Know
TTITLE7=Livin' On Easy Street
TTITLE8=A Lifetime Left Together
TTITLE9=When True Love Steps In
TTITLE10=After Closing Time
TTITLE11=Let's Build A World Together
TTITLE12=The World Needs A Melody
TTITLE13=When I Stop Dreaming
TTITLE14=After The Fire Is Gone
TTITLE15=My Elusive Dream
TTITLE16=Your Shining Face
TTITLE17=Touching Shoulders
TTITLE18=Love Is All We Need
TTITLE19=Help The People
TTITLE20=Our Way Of Life
TTITLE21=This Growing Old Together Love We Share
EXTD=
EXTT0=
EXTT1=
EXTT2=
EXTT3=
EXTT4=
EXTT5=
EXTT6=
EXTT7=
EXTT8=
EXTT9=
EXTT10=
EXTT11=
EXTT12=
EXTT13=
EXTT14=
EXTT15=
EXTT16=
EXTT17=
EXTT18=
EXTT19=
EXTT20=
EXTT21=
PLAYORDER=
